<svg width="1646" height="1553" viewBox="0 0 1646 1553" fill="none" xmlns="http://www.w3.org/2000/svg">
<path d="M732.171 6.76103C718.349 16.6702 715.956 21.4909 715.69 39.9703C715.69 55.7715 716.222 57.3784 725.791 67.5554C733.5 75.8577 739.347 79.3394 752.904 83.0888C786.13 92.1946 805.268 101.568 820.685 115.762C837.696 131.564 841.418 140.669 841.152 167.719C840.886 201.464 831.849 226.103 805.799 264.936C766.46 323.32 697.881 325.463 642.593 269.489C603.785 230.656 594.482 185.127 616.012 140.937C619.468 133.438 630.898 117.905 641.264 106.657C663.592 81.7497 665.719 70.2336 648.973 65.9485C641.796 64.0738 621.594 71.5727 614.152 78.5359C604.848 87.6417 587.039 94.0693 572.154 94.0693H556.737L541.852 77.7325C533.612 68.8945 526.967 60.5922 526.967 59.2531C526.967 57.914 524.043 54.7002 520.587 52.5577C515.271 49.0761 513.145 48.8083 507.031 51.7542C500.652 54.7002 500.12 56.0393 501.183 64.6094C501.715 69.9658 507.031 82.0175 512.879 91.6589C532.017 122.993 540.257 140.134 540.257 148.168C540.257 150.846 541.586 152.989 542.915 152.989C544.51 152.989 545.573 156.471 545.573 160.756C545.573 165.309 546.902 169.594 548.231 170.397C549.826 171.201 550.889 174.95 550.889 178.432C550.889 181.913 552.218 185.663 553.547 186.466C555.142 187.27 556.206 191.555 556.206 195.84C556.206 200.125 557.535 204.41 558.864 205.213C560.458 206.017 561.522 209.766 561.522 213.248C561.522 216.729 562.851 220.479 564.18 221.282C565.775 222.086 566.838 225.299 566.838 228.245C566.838 230.924 567.901 235.477 569.23 238.155C570.559 240.565 572.951 245.921 574.546 249.939C576.141 254.224 578.799 260.651 580.394 264.669C581.989 268.954 584.381 274.042 585.444 276.452C590.495 286.63 591.292 300.288 587.305 306.448C580.394 317.161 566.306 319.571 528.562 316.089C497.462 313.411 494.538 313.411 489.754 317.696C482.045 324.66 483.108 331.891 492.677 337.515C501.449 342.871 500.652 342.871 580.394 352.512C678.211 364.296 724.196 378.758 765.928 411.164C792.243 431.786 829.988 477.315 829.988 488.831C829.988 490.974 831.051 493.384 832.38 494.187C833.709 494.991 835.304 499.008 836.102 503.025C837.165 507.31 839.025 516.416 840.886 523.915C849.392 560.874 840.089 596.493 818.824 608.01C807.66 613.902 781.345 616.044 778.155 610.956C777.358 609.349 774.434 608.277 771.776 608.277C755.827 608.277 680.338 531.95 665.719 501.151C660.402 489.635 651.896 461.514 651.896 455.354C651.896 444.374 645.517 428.572 639.138 423.216C631.163 417.056 620 416.788 609.101 422.145C599.798 426.966 597.406 432.322 595.014 453.479C592.887 470.887 585.179 479.725 572.42 479.725C558.864 479.725 518.992 455.622 483.64 426.162C476.463 420.27 451.477 388.668 441.908 373.67C424.631 346.085 417.454 300.824 423.036 255.027C426.757 225.835 430.213 215.926 444.566 196.911C457.591 179.503 459.451 172.004 454.135 160.488C447.224 146.026 432.339 141.473 414.796 148.704C400.176 155.132 398.316 159.149 396.189 190.216C395.126 205.749 392.999 224.496 391.405 231.995C389.81 239.226 387.417 251.278 386.088 258.777C379.709 297.61 380.506 294.128 371.735 313.679C362.431 334.301 345.686 345.817 324.953 345.817C317.776 345.817 311.13 344.478 310.333 343.139C309.536 341.532 306.346 340.461 303.688 340.461C296.511 340.461 261.956 320.107 251.058 309.126C246.539 304.573 231.122 301.895 220.224 304.038C200.82 307.787 189.656 326.266 193.378 348.763C196.567 367.778 213.313 377.955 241.755 377.955C270.196 377.955 312.194 388.668 354.191 406.611C415.061 432.857 487.095 488.028 500.652 518.827C510.221 540.52 504.639 552.304 478.324 565.427C454.933 576.943 448.022 589.262 451.743 612.83C453.338 624.346 458.388 631.31 469.021 636.666C486.564 645.772 507.031 637.737 525.372 614.169C558.332 571.854 604.848 558.999 646.58 580.157C659.871 586.852 676.351 602.653 682.464 614.705C686.983 623.275 687.781 647.379 683.793 649.789C682.464 650.592 681.135 653.538 681.135 655.949C681.135 666.929 641.264 696.389 610.696 707.637C589.697 715.404 565.509 718.886 529.625 718.886C496.93 718.886 488.69 718.082 467.16 712.458C461.312 710.851 451.743 708.441 445.895 706.834C440.047 705.227 432.605 703.085 429.415 701.745C425.96 700.406 420.643 698.264 417.454 696.925C399.113 689.694 372.001 674.964 365.355 669.072C362.697 666.394 359.242 664.519 357.647 664.519C356.052 664.519 354.191 663.715 353.66 662.376C353.394 661.305 347.015 655.681 340.104 649.789C327.079 639.344 307.675 613.634 301.296 599.172C295.979 586.584 297.308 560.606 303.688 545.34C316.181 516.416 308.472 492.581 283.486 484.01C272.323 480.261 269.93 480.261 258.235 484.01C238.033 490.706 232.983 499.812 234.312 526.593C235.907 567.569 235.907 567.837 230.591 572.122C224.477 576.675 214.376 577.478 211.984 573.461C211.187 571.854 206.934 570.783 202.415 570.783C198.162 570.783 192.58 569.712 189.922 568.373C187.53 567.034 180.087 564.355 173.442 562.749C139.153 553.375 95.2943 534.896 86.2568 526.058C84.662 524.451 80.6749 522.04 77.751 521.237C74.8271 520.433 72.4348 518.291 72.4348 516.952C72.4348 515.613 66.587 514.542 59.4102 514.542C49.0437 514.542 45.3224 515.881 39.4746 521.505C35.7533 525.522 32.5636 530.343 32.5636 532.217C32.5636 534.36 31.5004 535.967 29.9055 535.967C24.8552 535.967 26.9816 560.07 32.5636 568.105C38.943 577.211 48.5121 580.424 75.0929 582.835C124.267 587.12 173.708 605.331 214.376 634.256C236.97 650.057 243.084 661.841 236.438 676.035C229.793 689.961 217.566 699.603 192.048 711.655C186.998 713.797 180.619 717.011 178.226 718.35C175.568 719.689 169.986 720.76 165.733 720.76C161.215 720.76 156.962 721.832 156.164 723.439C152.443 729.598 108.851 725.849 93.1678 717.814C90.5098 716.475 86.7885 715.404 84.662 715.404C79.8774 715.404 62.5999 698.264 52.2334 682.73C43.4617 669.875 35.2217 666.394 21.1339 669.072C12.628 670.679 0.666626 685.141 0.666626 693.443C0.666626 707.37 5.18536 711.922 32.5636 726.92C53.5624 738.704 84.1304 761.736 90.7756 771.378C95.2943 777.538 96.6234 783.43 96.6234 794.41C96.6234 807.801 88.6491 841.278 82.8013 852.526C81.4723 855.204 80.4091 860.293 80.4091 863.775C80.4091 867.524 79.3458 871.273 77.751 872.077C76.4219 872.88 75.0929 876.63 75.0929 880.111C75.0929 883.593 74.0297 887.075 72.7006 887.878C69.7767 889.753 66.587 909.303 68.7135 914.66C71.1058 921.087 83.8646 920.016 90.5098 912.785C93.6995 909.303 100.61 895.913 105.927 882.79C147.127 779.412 193.643 738.436 276.044 732.277C330.003 728.259 415.327 752.898 456.528 784.501C494.006 813.157 493.475 843.688 454.933 863.239C432.073 874.755 410.277 884.129 406.024 884.129C404.163 884.129 401.505 885.2 400.708 886.807C399.91 888.146 396.721 889.485 393.797 889.485C391.139 889.485 386.62 890.556 383.962 891.895C376.253 895.645 360.837 900.198 354.723 900.198C351.799 900.198 348.344 901.269 347.546 902.876C346.749 904.483 341.964 905.554 336.914 905.554C331.864 905.554 327.345 906.625 326.547 907.964C325.75 909.303 321.231 910.91 316.447 911.714C288.537 916.534 243.349 929.39 224.743 937.692C221.287 939.299 215.971 941.441 212.781 942.781C197.63 948.672 192.58 950.815 181.416 956.439C158.557 967.955 134.9 981.078 130.913 984.292C128.786 986.167 123.47 989.113 119.483 991.255C105.395 998.219 103.534 1011.88 116.027 1017.5C122.673 1020.45 123.47 1020.18 176.1 997.147C223.68 976.258 245.742 973.312 258.5 985.631C265.146 991.791 266.475 995.273 266.475 1005.45C266.475 1012.15 265.411 1018.57 263.817 1019.38C262.488 1020.18 261.159 1023.93 261.159 1027.41C261.159 1030.89 260.095 1034.64 258.5 1035.45C257.171 1036.25 255.842 1040.53 255.842 1044.82C255.842 1049.1 254.779 1053.39 253.184 1054.19C251.855 1055 250.526 1058.75 250.526 1062.49C250.526 1065.98 249.463 1071.06 248.134 1073.74C246.805 1076.15 244.413 1081.78 242.552 1086.33C233.78 1107.76 235.375 1105.35 208.263 1130.52C197.099 1140.96 196.833 1141.5 197.896 1154.89C199.757 1174.17 207.997 1181.94 228.464 1183.55C255.842 1185.42 259.83 1178.46 286.145 1077.76C306.878 998.754 329.737 962.867 371.203 942.781C400.442 928.854 420.643 929.657 457.591 946.262C479.121 956.171 496.665 958.582 507.297 952.958C521.119 945.726 522.448 941.977 524.574 909.839C526.701 871.541 533.878 855.74 559.129 830.565C595.014 794.678 666.516 763.611 713.032 763.611C764.599 763.611 811.381 797.624 832.912 850.652C838.494 864.846 842.481 918.141 838.228 922.426C836.633 924.033 835.304 929.39 835.304 934.21C835.304 939.031 834.241 945.191 832.912 947.869C831.583 950.279 827.861 958.314 824.406 965.813C806.597 1004.38 763.27 1057.67 731.639 1079.63C726.589 1083.12 721.804 1086.87 721.007 1087.67C716.488 1093.56 682.199 1114.18 660.402 1124.09C612.557 1146.32 611.228 1146.86 566.572 1146.32L528.296 1146.05L520.853 1155.16C514.474 1162.66 513.676 1166.14 514.208 1177.39C515.005 1189.98 515.803 1191.05 524.84 1195.6C534.143 1200.15 535.738 1200.15 557.8 1196.14C584.381 1191.05 595.279 1192.39 606.443 1201.76C619.734 1212.74 622.658 1222.11 622.658 1251.31C622.658 1265.77 621.594 1280.23 620.265 1283.71C618.936 1287.19 616.278 1295.23 614.418 1301.92C610.696 1314.51 592.887 1336.74 586.508 1336.74C584.381 1336.74 582.786 1337.81 582.786 1339.42C582.786 1340.76 580.394 1342.1 577.47 1342.1C574.546 1342.1 572.154 1343.17 572.154 1344.77C572.154 1346.11 569.762 1347.45 566.838 1347.45C563.914 1347.45 561.522 1348.52 561.522 1350.13C561.522 1351.47 559.927 1352.81 558.066 1352.81C550.889 1352.81 527.764 1365.93 523.511 1372.63C517.929 1380.93 517.929 1385.75 522.98 1395.66C532.283 1413.6 548.763 1412.8 570.028 1393.25C577.736 1386.29 587.837 1378.25 592.621 1375.84C611.228 1366.2 630.898 1372.89 646.58 1394.05C664.921 1419.23 671.035 1423.51 689.907 1424.58C708.779 1425.65 721.804 1419.49 726.323 1407.44C729.247 1399.68 723.665 1386.02 716.222 1382.8C694.426 1373.43 683.793 1360.57 670.769 1328.17C662.263 1306.21 664.921 1253.45 676.085 1231.75C685.654 1212.74 706.121 1206.04 726.854 1214.88C752.106 1225.33 800.217 1272.73 813.774 1299.78C825.203 1323.08 831.051 1354.95 827.33 1374.5C825.735 1382 824.672 1392.71 824.672 1398.07C824.406 1409.59 816.432 1435.3 808.457 1448.95C799.42 1464.22 779.219 1484.04 766.991 1489.66C745.993 1499.3 736.955 1519.66 745.727 1538.4C749.98 1548.05 764.068 1554.74 775.763 1552.6C784.269 1550.99 800.749 1537.33 800.749 1531.98C800.749 1525.55 813.242 1504.12 823.874 1492.07C840.089 1474.13 854.176 1468.77 874.378 1473.33C892.719 1477.34 921.692 1487.25 966.347 1504.93L1000.37 1518.32L1007.28 1512.43C1016.59 1504.39 1014.19 1494.22 1002.23 1489.13C997.447 1487.25 988.41 1482.43 982.296 1478.15C976.182 1474.13 970.6 1470.65 969.537 1470.65C968.474 1470.65 962.626 1467.17 956.247 1462.61C949.867 1458.33 944.02 1454.58 943.222 1454.58C942.425 1454.58 934.716 1450.03 926.21 1444.4C867.201 1405.84 861.087 1392.44 877.833 1334.33C882.352 1319.06 885.808 1300.58 885.808 1293.35C885.808 1271.93 881.289 1266.57 850.721 1251.04C801.015 1226.13 789.585 1215.15 781.877 1186.49C770.979 1145.25 807.926 1076.69 853.379 1053.92C885.276 1037.86 929.4 1044.82 969.537 1072.4C979.372 1079.37 1021.37 1120.34 1021.37 1123.02C1021.37 1124.09 1024.29 1129.45 1028.01 1134.81C1037.58 1149 1050.61 1177.39 1056.19 1196.14C1057.79 1202.03 1060.18 1209.53 1061.51 1213.01C1064.7 1221.04 1064.7 1268.45 1061.51 1274.61C1060.18 1277.02 1057.52 1282.64 1055.66 1287.19C1049.81 1300.32 1037.05 1318.53 1024.83 1331.38C1012.33 1344.51 1008.61 1356.02 1012.33 1371.29C1018.71 1397.27 1061.51 1400.75 1075.59 1376.38C1078.78 1371.29 1081.44 1359.5 1082.77 1345.58C1084.9 1320.4 1090.21 1308.62 1103.24 1301.12C1113.34 1295.23 1123.44 1296.57 1133.01 1305.4C1140.45 1311.83 1156.93 1332.72 1156.93 1335.4C1156.93 1336.2 1159.32 1339.42 1162.25 1342.63C1165.17 1345.84 1167.56 1350.13 1167.56 1352C1167.56 1353.88 1168.89 1355.49 1170.22 1355.49C1171.82 1355.49 1172.88 1357.09 1172.88 1358.97C1172.88 1360.57 1180.85 1373.16 1190.96 1386.29C1200.79 1399.68 1210.36 1413.33 1211.95 1417.08C1216.21 1425.39 1221.26 1448.95 1219.66 1451.63C1217 1455.65 1228.43 1475.47 1234.28 1477.34C1253.69 1483.77 1272.03 1476 1280.53 1458.33C1288.24 1441.72 1284.52 1432.89 1257.94 1405.03C1230.29 1376.11 1214.88 1353.08 1207.17 1328.97C1201.85 1312.64 1201.85 1310.49 1205.57 1301.39C1210.89 1288.26 1219.4 1283.44 1241.19 1280.23C1289.84 1273.53 1300.2 1271.39 1312.96 1266.57C1323.59 1262.55 1327.58 1259.61 1328.64 1254.52C1331.83 1242.47 1327.05 1241.4 1266.71 1238.18C1235.61 1236.31 1207.97 1233.9 1205.57 1232.56C1202.92 1231.22 1195.21 1227.2 1188.3 1223.99C1181.12 1220.51 1175.54 1216.76 1175.54 1215.69C1175.54 1214.35 1173.94 1213.54 1172.08 1213.54C1164.91 1213.54 1126.9 1172.57 1094.47 1129.72C1054.06 1076.15 1042.63 1062.76 1002.76 1023.39C956.247 977.329 940.564 952.422 933.653 914.392C926.476 875.023 942.159 836.189 971.664 820.924C1014.99 798.159 1085.7 839.939 1124.24 910.91C1126.9 915.999 1130.88 925.64 1132.74 932.336C1134.6 939.031 1137.26 948.137 1138.59 952.69C1142.58 965.813 1141.25 980.543 1134.87 999.825C1131.41 1009.73 1127.96 1018.84 1126.9 1019.91C1125.83 1020.72 1125.03 1027.14 1125.03 1033.84C1125.03 1057.14 1140.19 1071.87 1164.91 1072.14C1192.28 1072.14 1213.55 1049.37 1208.76 1024.2C1207.97 1018.84 1202.12 1001.97 1196.01 986.167C1186.44 961.796 1184.84 954.832 1184.84 937.692C1184.84 914.66 1188.83 906.09 1202.92 897.519C1218.33 887.878 1235.61 892.699 1255.55 911.446C1265.65 921.087 1281.86 943.584 1281.86 948.137C1281.86 949.744 1283.19 951.083 1284.52 951.083C1286.11 951.083 1287.18 953.761 1287.18 957.243C1287.18 960.724 1288.51 964.741 1290.1 966.348C1294.35 970.633 1294.62 1035.71 1290.37 1040C1288.51 1041.87 1287.18 1047.23 1287.18 1051.78C1287.18 1056.6 1286.11 1061.42 1284.52 1062.23C1283.19 1063.03 1281.86 1067.85 1281.86 1072.94C1281.86 1078.03 1280.8 1082.85 1279.2 1083.65C1275.22 1086.06 1276.01 1123.56 1280.27 1131.86C1286.91 1144.98 1299.67 1150.07 1343 1157.3C1373.57 1162.66 1380.21 1165.6 1399.08 1183.28C1416.09 1198.81 1418.49 1200.15 1429.65 1200.15C1439.49 1200.15 1443.21 1198.81 1449.85 1192.12C1457.3 1184.62 1457.83 1182.74 1456.76 1170.42C1454.64 1150.34 1449.59 1146.86 1414.77 1141.23C1394.3 1138.02 1388.45 1136.14 1375.16 1129.72C1350.97 1117.66 1331.57 1091.69 1328.11 1065.98C1325.72 1047.5 1331.3 1023.93 1340.87 1014.56C1348.58 1006.79 1349.11 1006.52 1367.72 1008.4C1390.84 1010.27 1401.74 1014.02 1441.35 1033.3C1503.55 1063.57 1533.32 1088.74 1557.24 1131.86C1559.1 1135.34 1563.09 1137.22 1567.87 1137.22C1593.65 1137.22 1570.26 1088.74 1525.34 1049.91C1513.65 1039.46 1500.62 1028.21 1496.37 1024.46C1492.38 1020.98 1488.13 1018.04 1487.07 1018.04C1485.74 1018.04 1482.55 1015.89 1479.62 1013.22C1469.79 1004.11 1417.96 971.169 1408.92 967.955C1406.26 967.152 1404.13 965.545 1404.13 964.206C1404.13 962.867 1402.54 961.796 1400.68 961.796C1398.82 961.796 1394.56 959.385 1391.37 956.439C1388.18 953.493 1384.73 951.083 1383.67 951.083C1382.6 951.083 1378.62 948.672 1374.89 945.726C1371.17 942.781 1359.21 933.675 1348.31 925.372C1312.7 898.055 1273.09 852.526 1269.63 834.85C1267.51 822.799 1273.89 811.015 1285.58 805.391C1295.95 800.57 1332.1 799.766 1363.46 803.784C1404.4 809.14 1452.24 831.637 1471.91 855.204C1485.74 871.809 1487.86 874.487 1494.24 888.146C1497.7 895.645 1501.42 903.679 1502.75 906.09C1504.08 908.768 1505.14 913.856 1505.14 917.606C1505.14 921.355 1507 928.051 1509.13 932.336C1514.18 941.977 1525.08 943.048 1533.85 934.746C1539.43 929.657 1539.7 928.051 1538.1 900.198C1536.24 872.345 1536.51 870.738 1543.15 859.49C1550.59 846.366 1566.81 835.922 1579.3 835.922C1583.82 835.922 1592.59 837.261 1598.97 838.868C1631.13 847.706 1660.37 808.069 1638.31 785.036C1631.67 778.073 1629.01 777.002 1616.25 777.002C1602.96 777.002 1600.3 778.073 1589.93 787.447C1573.98 801.373 1563.88 806.194 1545.81 808.069C1530.92 809.676 1504.87 806.194 1492.65 800.838C1489.19 799.499 1483.34 797.088 1479.36 795.481C1475.1 793.874 1469.79 791.464 1467.4 790.125C1464.74 788.786 1461.02 787.715 1458.89 787.715C1455.7 787.715 1447.19 783.965 1427.52 774.056C1424.87 772.717 1420.88 771.646 1418.75 771.646C1416.63 771.646 1414.77 770.307 1414.77 768.967C1414.77 767.361 1411.84 766.289 1408.39 766.289C1404.67 766.289 1400.94 764.95 1400.15 763.611C1399.35 762.004 1395.89 760.933 1392.97 760.933C1389.78 760.933 1383.67 759.862 1379.15 758.523C1374.63 757.184 1365.59 754.505 1358.95 752.898C1340.07 747.81 1327.05 741.65 1322.8 735.758C1320.4 732.009 1319.07 723.171 1319.07 709.244C1319.07 677.106 1309.77 664.519 1285.85 664.519C1273.36 664.519 1263.79 668.268 1259.27 675.232C1253.69 683.802 1249.96 698.799 1249.96 712.994C1249.96 721.296 1248.1 732.544 1245.98 737.901C1240.66 750.756 1216.21 774.324 1200.52 782.09C1193.35 785.572 1185.37 789.322 1182.98 790.661C1180.32 792 1168.36 793.071 1156.13 793.071C1115.2 793.071 1083.83 774.592 1066.29 740.311C1061.24 730.134 1059.91 723.706 1059.91 706.298C1059.91 687.551 1060.98 682.463 1067.62 669.072C1088.35 627.828 1133.27 599.975 1215.94 576.407C1344.59 539.984 1412.91 544.001 1460.22 590.066C1468.46 598.1 1477.23 608.277 1479.89 612.83C1486.53 624.346 1497.17 629.703 1513.11 629.703C1525.61 629.703 1528 628.631 1537.3 619.258C1546.34 610.152 1547.67 607.206 1547.67 596.761C1547.67 574.532 1539.43 565.695 1509.13 556.321C1500.36 553.643 1488.13 549.09 1482.02 546.412C1475.64 543.466 1469.52 541.323 1468.19 541.323C1461.81 541.323 1441.08 527.665 1427.52 514.542C1405.46 492.848 1402.8 476.512 1416.63 448.926C1423.8 435 1448.79 411.432 1463.14 404.737C1488.13 393.221 1506.2 399.648 1538.63 432.054C1558.04 451.337 1560.96 453.212 1569.2 452.408C1575.31 451.872 1579.3 449.462 1581.69 444.909C1585.15 438.749 1584.88 436.875 1579.3 424.823C1571.59 407.683 1549.53 385.99 1531.19 376.884C1511.25 367.242 1495.04 361.886 1485.47 361.886C1475.9 361.886 1452.78 369.921 1443.74 376.348C1440.02 378.758 1432.31 380.633 1424.87 380.633C1412.64 380.633 1412.11 380.365 1412.11 373.134C1412.11 365.368 1425.4 321.446 1430.71 310.733C1432.57 307.251 1441.08 297.074 1449.85 287.969C1464.21 272.971 1465.54 270.828 1464.74 261.187C1463.67 247.26 1450.38 237.619 1435.23 239.494C1415.56 242.172 1407.06 257.438 1401.48 298.949C1397.22 330.284 1390.84 353.852 1382.6 370.456C1381.27 373.134 1380.21 377.687 1380.21 380.633C1380.21 383.579 1379.15 385.99 1377.55 385.99C1376.22 385.99 1374.89 388.4 1374.89 391.346C1374.89 394.292 1373.83 396.702 1372.77 396.702C1371.44 396.702 1369.05 400.987 1366.92 406.076C1364.79 411.432 1361.07 417.592 1358.41 420.002C1355.76 422.413 1353.63 425.626 1353.63 427.233C1353.63 431.786 1311.37 474.369 1306.85 474.369C1306.05 474.369 1300.47 477.851 1294.35 481.868C1282.13 490.17 1269.9 496.062 1253.95 501.419C1248.1 503.293 1242.26 505.971 1240.93 507.043C1239.33 508.114 1236.14 509.185 1233.48 509.185C1230.83 509.185 1226.31 510.256 1223.38 511.863C1220.46 513.202 1215.68 515.613 1212.75 517.22C1209.83 518.559 1203.98 519.898 1199.73 519.898C1195.21 519.898 1191.22 520.969 1190.42 522.308C1188.83 524.986 1171.29 528.2 1158.26 528.2C1130.35 528.736 1112.81 513.202 1092.07 470.887C1069.22 423.484 1063.9 390.007 1074.53 361.083C1084.37 334.569 1106.96 313.947 1140.19 301.092C1156.13 295.2 1163.84 294.128 1203.71 292.522C1242.79 290.915 1250.23 290.111 1257.41 285.29C1262.19 282.344 1281.86 262.526 1301.27 241.369C1325.72 214.587 1343.26 197.982 1359.48 186.734C1383.13 169.861 1387.12 165.041 1384.2 155.667C1382.07 148.704 1367.72 148.436 1355.49 155.399C1340.34 163.969 1334.23 167.719 1331.3 169.594C1294.89 195.572 1282.39 206.552 1270.43 222.889C1261.93 234.941 1244.12 244.047 1229.76 244.047C1219.66 244.047 1201.59 238.958 1197.87 235.209C1196.8 234.137 1194.15 233.334 1192.28 233.334C1190.16 233.334 1183.51 230.924 1177.66 227.978C1169.96 224.228 1161.18 222.621 1149.22 222.621H1131.68L1118.66 236.816C1111.48 244.314 1096.59 263.329 1085.43 278.595C1069.75 300.288 1062.57 308.055 1053.27 312.876C1038.12 320.374 1032.27 320.642 1021.1 312.876C981.764 286.63 1000.11 215.658 1061.24 157.542C1097.13 123.261 1126.36 104.514 1152.15 99.1578C1179.26 93.2658 1188.83 84.4279 1188.83 65.6807C1188.83 57.3784 1186.97 52.0221 1181.92 46.1301C1175.8 38.6312 1173.68 37.8278 1159.06 37.8278C1143.64 37.8278 1140.45 39.1669 1134.34 48.8083C1116.53 76.929 1107.23 85.4992 1081.44 97.8187C1066.29 105.05 1057.79 107.46 1038.91 109.335C1025.89 110.674 1005.42 106.121 1005.42 101.568C1005.42 100.497 1003.83 99.4256 1001.97 99.4256C1000.11 99.4256 993.194 94.6049 986.815 88.713C980.169 82.821 969.537 74.2508 963.158 69.9658C952.525 62.7347 950.665 62.1991 945.88 65.6807C939.767 69.698 937.109 77.7325 940.83 80.4106C944.551 82.821 958.905 105.05 963.158 114.691C965.284 119.512 967.677 123.529 968.74 123.529C970.069 123.529 970.866 126.475 970.866 129.957C970.866 133.706 972.195 137.456 973.524 138.259C975.119 139.33 976.182 153.525 976.182 171.736C976.182 189.948 975.119 204.142 973.524 205.213C972.195 206.017 970.866 210.302 970.866 214.587C970.866 218.872 969.803 223.157 968.208 223.96C966.879 224.764 965.55 228.513 965.55 232.263C965.55 235.744 964.487 240.833 963.158 243.511C961.829 245.921 958.639 252.617 956.247 258.241C951.728 268.954 932.59 289.576 927.539 289.576C925.945 289.576 921.16 292.789 917.173 296.807C911.059 302.699 909.73 306.18 909.73 316.625C909.73 332.962 916.376 341.264 935.248 348.495C972.727 362.422 1005.42 396.702 1029.08 446.248C1033.86 456.425 1038.91 467.138 1040.24 469.548C1041.57 472.226 1042.63 477.851 1042.63 482.136C1042.63 486.689 1043.96 490.974 1045.29 491.777C1049.01 493.92 1048.75 523.915 1045.03 535.699C1034.66 568.373 1019.24 583.906 986.283 595.154C977.511 598.1 975.385 597.833 961.829 591.137C942.425 581.496 936.311 572.39 906.541 508.114C886.073 463.924 867.467 425.359 857.366 406.076C845.936 384.115 842.215 367.778 842.215 337.783C842.481 313.411 843.544 306.448 850.721 284.755C861.619 252.885 867.467 242.975 899.63 201.999C924.084 170.665 927.008 165.041 925.679 151.65C924.881 143.08 909.996 129.421 887.402 116.566C875.973 110.138 866.138 104.782 865.34 104.782C864.809 104.782 858.961 101.033 852.582 96.7475C846.202 92.1946 839.823 88.713 838.494 88.713C832.912 88.713 806.065 55.5037 802.078 43.4519C789.851 8.36793 781.079 0.333425 756.093 0.333425C744.664 0.601242 738.816 2.20814 732.171 6.76103Z" fill="white"/>
<path d="M630.632 969.83C628.505 971.169 623.455 972.508 619.468 972.508C615.481 972.508 611.494 973.579 610.696 975.186C609.899 976.525 606.975 977.864 604.317 977.864C601.659 977.864 596.077 979.471 591.824 981.614C587.571 983.756 579.863 987.238 574.812 989.381C552.218 999.29 540.789 1005.18 528.296 1012.68C521.119 1016.97 511.018 1022.59 506.499 1025C501.715 1027.41 497.728 1030.36 497.728 1031.7C497.728 1033.03 496.399 1034.11 494.804 1034.11C491.083 1034.11 477.526 1043.75 458.92 1059.55C431.276 1083.38 415.859 1100.79 393.531 1133.2C378.38 1155.43 333.99 1202.83 328.408 1202.83C327.079 1202.83 323.623 1204.97 320.7 1207.38C315.649 1211.94 312.46 1213.81 297.84 1222.11C294.385 1223.99 291.195 1226.13 290.397 1226.93C288.537 1229.08 266.475 1239.25 255.842 1243.27C250.792 1244.88 240.16 1249.43 232.451 1252.91C224.743 1256.13 217.3 1259.07 215.971 1259.07C214.376 1259.07 211.187 1260.14 208.529 1261.48C201.086 1265.23 191.251 1269.25 180.087 1273C163.341 1278.35 157.493 1282.91 157.493 1290.94C157.493 1300.05 165.999 1305.4 176.897 1303.26C204.807 1297.64 225.54 1291.21 272.854 1273.27C334.256 1250.23 345.686 1247.82 361.634 1256.13C373.861 1262.55 386.088 1279.16 386.088 1289.6C386.088 1293.35 387.152 1296.83 388.481 1297.64C389.544 1298.44 391.67 1305.4 392.468 1313.17C397.518 1350.4 399.379 1367.54 401.771 1399.41C403.898 1425.12 405.492 1435.03 408.948 1438.78C414.796 1445.2 418.251 1445.2 427.023 1438.24L433.934 1432.89V1385.48C433.934 1359.5 432.605 1327.1 431.276 1313.97C429.947 1300.58 428.086 1271.66 427.023 1249.7C425.162 1202.56 428.618 1180.87 442.971 1150.07C458.388 1117.66 508.094 1072.4 547.7 1055C582.521 1039.73 587.837 1038.66 626.645 1038.39C659.339 1038.12 664.655 1037.59 671.035 1032.77C686.983 1021.25 692.831 996.344 682.73 982.953C673.693 970.098 642.062 962.331 630.632 969.83Z" fill="white"/>
</svg>
